<svg aria-hidden="true" style="position: absolute; width: 0; height: 0; overflow: hidden;" version="1.1" xmlns="http://www.w3.org/2000/svg" xmlns:xlink="http://www.w3.org/1999/xlink">
<defs>
<symbol id="icon-discord" viewBox="0 0 32 32">
<path d="M26.795 7.409c-2.586-2.078-6.674-2.43-6.847-2.445-0.273-0.023-0.532 0.131-0.644 0.381-0.004 0.009-0.233 0.671-0.453 1.31 3.005 0.526 5.046 1.693 5.155 1.757 0.51 0.297 0.681 0.95 0.383 1.459-0.197 0.339-0.555 0.529-0.922 0.529-0.182 0-0.366-0.046-0.534-0.144-0.030-0.018-3.025-1.723-6.93-1.723-3.906 0-6.902 1.706-6.932 1.723-0.509 0.295-1.162 0.122-1.457-0.388-0.295-0.508-0.124-1.159 0.384-1.456 0.109-0.064 2.158-1.235 5.171-1.76-0.233-0.646-0.467-1.298-0.471-1.307-0.112-0.251-0.371-0.409-0.644-0.381-0.173 0.014-4.261 0.366-6.881 2.473-1.37 1.265-4.105 8.661-4.105 15.056 0 0.113 0.029 0.223 0.085 0.321 1.889 3.317 7.039 4.186 8.212 4.223 0.007 0.001 0.014 0.001 0.020 0.001 0.207 0 0.402-0.099 0.525-0.267l1.269-1.719c-2.784-0.671-4.256-1.726-4.345-1.791-0.474-0.349-0.576-1.017-0.227-1.491 0.348-0.473 1.013-0.577 1.487-0.23 0.039 0.026 2.756 1.927 7.906 1.927 5.17 0 7.879-1.909 7.906-1.929 0.474-0.343 1.141-0.24 1.488 0.236 0.346 0.474 0.245 1.137-0.226 1.485-0.089 0.065-1.553 1.118-4.331 1.789l1.253 1.723c0.123 0.169 0.318 0.267 0.525 0.267 0.007 0 0.014 0 0.020-0.001 1.174-0.037 6.324-0.906 8.212-4.223 0.057-0.098 0.085-0.208 0.085-0.321 0-6.394-2.735-13.79-4.139-15.083zM11.733 20.267c-1.179 0-2.133-1.194-2.133-2.667s0.955-2.667 2.133-2.667 2.133 1.194 2.133 2.667-0.955 2.667-2.133 2.667zM20.267 20.267c-1.179 0-2.133-1.194-2.133-2.667s0.955-2.667 2.133-2.667 2.133 1.194 2.133 2.667-0.955 2.667-2.133 2.667z"></path>
</symbol>
<symbol id="icon-user" viewBox="0 0 32 32">
<path d="M23.42 7.42c0 4.098-3.322 7.42-7.42 7.42s-7.42-3.322-7.42-7.42c0-4.098 3.322-7.42 7.42-7.42s7.42 3.322 7.42 7.42z"></path>
<path d="M16 18.551c-7.428 0-13.449 6.021-13.449 13.449h26.899c0-7.428-6.021-13.449-13.449-13.449z"></path>
</symbol>
<symbol id="icon-password" viewBox="0 0 32 32">
<path d="M22 0c-5.523 0-10 4.477-10 10 0 0.625 0.074 1.227 0.184 1.816l-12.184 12.184v8h12v-4h4v-4h4v-4l0.184-0.184c0.589 0.11 1.191 0.184 1.816 0.184 5.523 0 10-4.477 10-10s-4.477-10-10-10zM22.008 12c-1.105 0-2-0.895-2-2s0.895-2 2-2 2 0.895 2 2-0.895 2-2 2z"></path>
</symbol>
<symbol id="icon-email" viewBox="0 0 32 32">
<path d="M16.86 17.173c-0.256 0.188-0.558 0.282-0.86 0.282s-0.604-0.094-0.86-0.282l-15.14-11.102-0 20.596c0 0.803 0.651 1.455 1.455 1.455l29.091-0c0.803 0 1.455-0.651 1.455-1.454v-20.596l-15.14 11.102z"></path>
<path d="M16 14.196l14.069-10.317-28.138-0z"></path>
</symbol>
<symbol id="icon-unique-key" viewBox="0 0 32 32">
<path d="M30.704 11.071h-4.519v-4.153l-7.38-6.919h-17.509v32h24.889v-4.686h4.519v-16.242zM28.037 24.647h-18.667v-10.909h18.667v10.909z"></path>
<path d="M12.696 20l0.728-0.76 1.768 2.456h1.24l-2.312-3.16 2.176-2.52h-1.216l-2.384 2.704v-2.696h-1.104v5.672h1.104z"></path>
<path d="M20.888 20.728h-2.84v-1.48h2.392v-0.896h-2.392v-1.368h2.768v-0.968h-3.872v5.68h3.944z"></path>
<path d="M23.248 21.696h1.096v-1.984l2.064-3.696h-1.192l-1.424 2.736-1.4-2.736h-1.2l2.056 3.68z"></path>
</symbol>
<symbol id="icon-question-mark" viewBox="0 0 32 32">
<path d="M16.518 25.92h-1.546c-1.088 0-1.973 0.885-1.973 1.973v2.134c0 1.088 0.885 1.973 1.973 1.973h1.546c1.088 0 1.973-0.885 1.973-1.973v-2.134c0-1.092-0.885-1.973-1.973-1.973z"></path>
<path d="M5.62 9.398l2.851 0.355c0.904 0.112 1.763-0.408 2.088-1.259 0.411-1.075 0.983-1.924 1.717-2.542 1.039-0.875 2.332-1.315 3.877-1.315 1.601 0 2.877 0.421 3.824 1.259 0.947 0.842 1.417 1.848 1.417 3.029 0 0.848-0.266 1.624-0.799 2.328-0.345 0.447-1.407 1.388-3.18 2.825-1.776 1.437-2.956 2.733-3.548 3.884-0.605 1.177-0.816 2.483-0.868 3.792-0.046 1.121 0.848 2.055 1.973 2.055h1.611c1.026 0 1.874-0.786 1.966-1.805 0.066-0.733 0.187-1.289 0.372-1.667 0.309-0.648 1.108-1.503 2.391-2.568 2.483-2.055 4.101-3.68 4.86-4.877 0.756-1.194 1.138-2.46 1.138-3.798 0-2.417-1.029-4.538-3.091-6.36-2.059-1.822-4.834-2.733-8.32-2.733-3.315 0-5.988 0.898-8.027 2.697-1.736 1.532-2.792 3.348-3.163 5.442-0.115 0.612 0.303 1.184 0.911 1.259z"></path>
</symbol>
<symbol id="icon-exclamation-mark" viewBox="0 0 32 32">
<path d="M18.494 21.22h-4.989l-2.005-20.22h9z"></path>
<path d="M19.831 27.177c0 2.111-1.715 3.823-3.832 3.823s-3.832-1.712-3.832-3.823c0-2.111 1.715-3.823 3.832-3.823s3.832 1.712 3.832 3.823z"></path>
</symbol>
<symbol id="icon-tiktok" viewBox="0 0 32 32">
<path d="M26.24 2.56h-20.48c-1.764 0-3.2 1.436-3.2 3.2v20.48c0 1.764 1.436 3.2 3.2 3.2h20.48c1.764 0 3.2-1.436 3.2-3.2v-20.48c0-1.764-1.436-3.2-3.2-3.2zM23.684 14.287c-0.145 0.013-0.292 0.022-0.442 0.022-1.679 0-3.154-0.863-4.012-2.168 0 3.423 0 7.318 0 7.384 0 3.014-2.444 5.457-5.457 5.457s-5.457-2.444-5.457-5.457 2.444-5.457 5.457-5.457c0.114 0 0.225 0.010 0.337 0.017v2.689c-0.112-0.013-0.222-0.034-0.337-0.034-1.539 0-2.785 1.247-2.785 2.785s1.247 2.785 2.785 2.785 2.897-1.212 2.897-2.751c0-0.061 0.027-12.54 0.027-12.54h2.57c0.242 2.298 2.097 4.112 4.417 4.278v2.989z"></path>
</symbol>
<symbol id="icon-instagram" viewBox="0 0 32 32">
<path d="M10.24 1.92c-4.589 0-8.32 3.731-8.32 8.32v11.52c0 4.589 3.731 8.32 8.32 8.32h11.52c4.589 0 8.32-3.731 8.32-8.32v-11.52c0-4.589-3.731-8.32-8.32-8.32h-11.52zM23.68 7.040c0.704 0 1.28 0.576 1.28 1.28s-0.576 1.28-1.28 1.28c-0.704 0-1.28-0.576-1.28-1.28s0.576-1.28 1.28-1.28zM16 8.96c3.885 0 7.040 3.155 7.040 7.040s-3.155 7.040-7.040 7.040c-3.885 0-7.040-3.155-7.040-7.040s3.155-7.040 7.040-7.040zM16 10.24c-3.174 0-5.76 2.586-5.76 5.76s2.586 5.76 5.76 5.76c3.174 0 5.76-2.586 5.76-5.76s-2.586-5.76-5.76-5.76z"></path>
</symbol>
<symbol id="icon-youtube" viewBox="0 0 32 32">
<path d="M28.735 9.28c-0.255-1.407-1.47-2.433-2.88-2.752-2.11-0.447-6.015-0.768-10.24-0.768-4.223 0-8.19 0.32-10.303 0.768-1.407 0.32-2.625 1.28-2.88 2.752-0.257 1.6-0.512 3.84-0.512 6.72s0.255 5.12 0.575 6.72c0.257 1.407 1.473 2.433 2.88 2.753 2.24 0.448 6.080 0.767 10.305 0.767s8.065-0.32 10.305-0.767c1.407-0.32 2.622-1.28 2.88-2.753 0.255-1.6 0.575-3.905 0.64-6.72-0.13-2.88-0.45-5.12-0.77-6.72zM12.16 20.48v-8.96l7.808 4.48z"></path>
</symbol>
<symbol id="icon-facebook" viewBox="0 0 32 32">
<path d="M20.48 7.040h3.2c0.353 0 0.64-0.287 0.64-0.64v-4.312c0-0.335-0.258-0.614-0.592-0.638-1.018-0.072-3.007-0.17-4.438-0.17-3.93 0-6.49 2.355-6.49 6.636v4.244h-4.48c-0.353 0-0.64 0.287-0.64 0.64v4.48c0 0.353 0.287 0.64 0.64 0.64h4.48v12.16c0 0.353 0.287 0.64 0.64 0.64h4.48c0.353 0 0.64-0.287 0.64-0.64v-12.16h4.622c0.326 0 0.6-0.245 0.636-0.57l0.498-4.48c0.042-0.379-0.255-0.71-0.636-0.71h-5.12v-3.2c0-1.060 0.86-1.92 1.92-1.92z"></path>
</symbol>
<symbol id="icon-invisible" viewBox="0 0 32 32">
<path d="M31.882 15.619c-0.25-0.369-6.306-8.957-15.882-8.957-8.214 0.006-15.538 8.545-15.845 8.907-0.206 0.25-0.206 0.612 0 0.862 0.306 0.363 7.625 8.901 15.845 8.901s15.539-8.539 15.845-8.901c0.194-0.231 0.206-0.563 0.038-0.813zM16 24.001c-6.588 0-12.851-6.281-14.439-8.001 1.587-1.719 7.845-8.001 14.439-8.001 7.706 0 13.145 6.269 14.476 7.964-1.538 1.669-7.831 8.038-14.476 8.038z"></path>
<path d="M16 10.669c-2.944 0-5.331 2.394-5.331 5.331s2.394 5.331 5.331 5.331 5.331-2.394 5.331-5.331-2.387-5.331-5.331-5.331zM16 20c-2.206 0-4-1.794-4-4s1.794-4 4-4 4 1.794 4 4-1.794 4-4 4z"></path>
<path d="M4.637 27.657c-0.175 0-0.356-0.069-0.481-0.212-0.244-0.269-0.225-0.681 0.037-0.925l22.627-20.77c0.269-0.244 0.681-0.225 0.925 0.037s0.225 0.681-0.038 0.925l-22.627 20.77c-0.125 0.119-0.287 0.175-0.444 0.175z"></path>
</symbol>
<symbol id="icon-visible" viewBox="0 0 32 32">
<path d="M31.881 15.621c-0.252-0.367-6.308-8.955-15.882-8.955-8.215 0-15.535 8.539-15.843 8.903-0.209 0.248-0.209 0.612 0 0.861 0.308 0.364 7.628 8.903 15.843 8.903s15.535-8.539 15.843-8.903c0.193-0.229 0.211-0.561 0.039-0.809zM16 24c-6.585 0-12.847-6.28-14.438-8 1.588-1.721 7.843-8 14.438-8 7.705 0 13.144 6.271 14.472 7.964-1.533 1.665-7.831 8.036-14.472 8.036z"></path>
<path d="M16 10.667c-2.941 0-5.333 2.392-5.333 5.333s2.392 5.333 5.333 5.333 5.333-2.392 5.333-5.333-2.392-5.333-5.333-5.333zM16 20c-2.205 0-4-1.795-4-4s1.795-4 4-4 4 1.795 4 4-1.795 4-4 4z"></path>
</symbol>
</defs>
</svg>
