<!-- Generated by IcoMoon.io -->
<svg version="1.1" xmlns="http://www.w3.org/2000/svg" width="32" height="32" viewBox="0 0 32 32">
<title>discord</title>
<path d="M26.795 7.409c-2.586-2.078-6.674-2.43-6.847-2.445-0.273-0.023-0.532 0.131-0.644 0.381-0.004 0.009-0.233 0.671-0.453 1.31 3.005 0.526 5.046 1.693 5.155 1.757 0.51 0.297 0.681 0.95 0.383 1.459-0.197 0.339-0.555 0.529-0.922 0.529-0.182 0-0.366-0.046-0.534-0.144-0.030-0.018-3.025-1.723-6.93-1.723-3.906 0-6.902 1.706-6.932 1.723-0.509 0.295-1.162 0.122-1.457-0.388-0.295-0.508-0.124-1.159 0.384-1.456 0.109-0.064 2.158-1.235 5.171-1.76-0.233-0.646-0.467-1.298-0.471-1.307-0.112-0.251-0.371-0.409-0.644-0.381-0.173 0.014-4.261 0.366-6.881 2.473-1.37 1.265-4.105 8.661-4.105 15.056 0 0.113 0.029 0.223 0.085 0.321 1.889 3.317 7.039 4.186 8.212 4.223 0.007 0.001 0.014 0.001 0.020 0.001 0.207 0 0.402-0.099 0.525-0.267l1.269-1.719c-2.784-0.671-4.256-1.726-4.345-1.791-0.474-0.349-0.576-1.017-0.227-1.491 0.348-0.473 1.013-0.577 1.487-0.23 0.039 0.026 2.756 1.927 7.906 1.927 5.17 0 7.879-1.909 7.906-1.929 0.474-0.343 1.141-0.24 1.488 0.236 0.346 0.474 0.245 1.137-0.226 1.485-0.089 0.065-1.553 1.118-4.331 1.789l1.253 1.723c0.123 0.169 0.318 0.267 0.525 0.267 0.007 0 0.014 0 0.020-0.001 1.174-0.037 6.324-0.906 8.212-4.223 0.057-0.098 0.085-0.208 0.085-0.321 0-6.394-2.735-13.79-4.139-15.083zM11.733 20.267c-1.179 0-2.133-1.194-2.133-2.667s0.955-2.667 2.133-2.667 2.133 1.194 2.133 2.667-0.955 2.667-2.133 2.667zM20.267 20.267c-1.179 0-2.133-1.194-2.133-2.667s0.955-2.667 2.133-2.667 2.133 1.194 2.133 2.667-0.955 2.667-2.133 2.667z"></path>
</svg>
