<!-- Generated by IcoMoon.io -->
<svg version="1.1" xmlns="http://www.w3.org/2000/svg" width="32" height="32" viewBox="0 0 32 32">
<title>facebook</title>
<path d="M20.48 7.040h3.2c0.353 0 0.64-0.287 0.64-0.64v-4.312c0-0.335-0.258-0.614-0.592-0.638-1.018-0.072-3.007-0.17-4.438-0.17-3.93 0-6.49 2.355-6.49 6.636v4.244h-4.48c-0.353 0-0.64 0.287-0.64 0.64v4.48c0 0.353 0.287 0.64 0.64 0.64h4.48v12.16c0 0.353 0.287 0.64 0.64 0.64h4.48c0.353 0 0.64-0.287 0.64-0.64v-12.16h4.622c0.326 0 0.6-0.245 0.636-0.57l0.498-4.48c0.042-0.379-0.255-0.71-0.636-0.71h-5.12v-3.2c0-1.060 0.86-1.92 1.92-1.92z"></path>
</svg>
