<!-- Generated by IcoMoon.io -->
<svg version="1.1" xmlns="http://www.w3.org/2000/svg" width="32" height="32" viewBox="0 0 32 32">
<title>invisible</title>
<path d="M31.882 15.619c-0.25-0.369-6.306-8.957-15.882-8.957-8.214 0.006-15.538 8.545-15.845 8.907-0.206 0.25-0.206 0.612 0 0.862 0.306 0.363 7.625 8.901 15.845 8.901s15.539-8.539 15.845-8.901c0.194-0.231 0.206-0.563 0.038-0.813zM16 24.001c-6.588 0-12.851-6.281-14.439-8.001 1.587-1.719 7.845-8.001 14.439-8.001 7.706 0 13.145 6.269 14.476 7.964-1.538 1.669-7.831 8.038-14.476 8.038z"></path>
<path d="M16 10.669c-2.944 0-5.331 2.394-5.331 5.331s2.394 5.331 5.331 5.331 5.331-2.394 5.331-5.331-2.387-5.331-5.331-5.331zM16 20c-2.206 0-4-1.794-4-4s1.794-4 4-4 4 1.794 4 4-1.794 4-4 4z"></path>
<path d="M4.637 27.657c-0.175 0-0.356-0.069-0.481-0.212-0.244-0.269-0.225-0.681 0.037-0.925l22.627-20.77c0.269-0.244 0.681-0.225 0.925 0.037s0.225 0.681-0.038 0.925l-22.627 20.77c-0.125 0.119-0.287 0.175-0.444 0.175z"></path>
</svg>
