<!-- Generated by IcoMoon.io -->
<svg version="1.1" xmlns="http://www.w3.org/2000/svg" width="32" height="32" viewBox="0 0 32 32">
<title>question-mark</title>
<path d="M16.518 25.92h-1.546c-1.088 0-1.973 0.885-1.973 1.973v2.134c0 1.088 0.885 1.973 1.973 1.973h1.546c1.088 0 1.973-0.885 1.973-1.973v-2.134c0-1.092-0.885-1.973-1.973-1.973z"></path>
<path d="M5.62 9.398l2.851 0.355c0.904 0.112 1.763-0.408 2.088-1.259 0.411-1.075 0.983-1.924 1.717-2.542 1.039-0.875 2.332-1.315 3.877-1.315 1.601 0 2.877 0.421 3.824 1.259 0.947 0.842 1.417 1.848 1.417 3.029 0 0.848-0.266 1.624-0.799 2.328-0.345 0.447-1.407 1.388-3.18 2.825-1.776 1.437-2.956 2.733-3.548 3.884-0.605 1.177-0.816 2.483-0.868 3.792-0.046 1.121 0.848 2.055 1.973 2.055h1.611c1.026 0 1.874-0.786 1.966-1.805 0.066-0.733 0.187-1.289 0.372-1.667 0.309-0.648 1.108-1.503 2.391-2.568 2.483-2.055 4.101-3.68 4.86-4.877 0.756-1.194 1.138-2.46 1.138-3.798 0-2.417-1.029-4.538-3.091-6.36-2.059-1.822-4.834-2.733-8.32-2.733-3.315 0-5.988 0.898-8.027 2.697-1.736 1.532-2.792 3.348-3.163 5.442-0.115 0.612 0.303 1.184 0.911 1.259z"></path>
</svg>
