<!-- Generated by IcoMoon.io -->
<svg version="1.1" xmlns="http://www.w3.org/2000/svg" width="32" height="32" viewBox="0 0 32 32">
<title>tiktok</title>
<path d="M26.24 2.56h-20.48c-1.764 0-3.2 1.436-3.2 3.2v20.48c0 1.764 1.436 3.2 3.2 3.2h20.48c1.764 0 3.2-1.436 3.2-3.2v-20.48c0-1.764-1.436-3.2-3.2-3.2zM23.684 14.287c-0.145 0.013-0.292 0.022-0.442 0.022-1.679 0-3.154-0.863-4.012-2.168 0 3.423 0 7.318 0 7.384 0 3.014-2.444 5.457-5.457 5.457s-5.457-2.444-5.457-5.457 2.444-5.457 5.457-5.457c0.114 0 0.225 0.010 0.337 0.017v2.689c-0.112-0.013-0.222-0.034-0.337-0.034-1.539 0-2.785 1.247-2.785 2.785s1.247 2.785 2.785 2.785 2.897-1.212 2.897-2.751c0-0.061 0.027-12.54 0.027-12.54h2.57c0.242 2.298 2.097 4.112 4.417 4.278v2.989z"></path>
</svg>
