<!-- Generated by IcoMoon.io -->
<svg version="1.1" xmlns="http://www.w3.org/2000/svg" width="32" height="32" viewBox="0 0 32 32">
<title>unique-key</title>
<path d="M30.704 11.071h-4.519v-4.153l-7.38-6.919h-17.509v32h24.889v-4.686h4.519v-16.242zM28.037 24.647h-18.667v-10.909h18.667v10.909z"></path>
<path d="M12.696 20l0.728-0.76 1.768 2.456h1.24l-2.312-3.16 2.176-2.52h-1.216l-2.384 2.704v-2.696h-1.104v5.672h1.104z"></path>
<path d="M20.888 20.728h-2.84v-1.48h2.392v-0.896h-2.392v-1.368h2.768v-0.968h-3.872v5.68h3.944z"></path>
<path d="M23.248 21.696h1.096v-1.984l2.064-3.696h-1.192l-1.424 2.736-1.4-2.736h-1.2l2.056 3.68z"></path>
</svg>
