<!-- Generated by IcoMoon.io -->
<svg version="1.1" xmlns="http://www.w3.org/2000/svg" width="32" height="32" viewBox="0 0 32 32">
<title>youtube</title>
<path d="M28.735 9.28c-0.255-1.407-1.47-2.433-2.88-2.752-2.11-0.447-6.015-0.768-10.24-0.768-4.223 0-8.19 0.32-10.303 0.768-1.407 0.32-2.625 1.28-2.88 2.752-0.257 1.6-0.512 3.84-0.512 6.72s0.255 5.12 0.575 6.72c0.257 1.407 1.473 2.433 2.88 2.753 2.24 0.448 6.080 0.767 10.305 0.767s8.065-0.32 10.305-0.767c1.407-0.32 2.622-1.28 2.88-2.753 0.255-1.6 0.575-3.905 0.64-6.72-0.13-2.88-0.45-5.12-0.77-6.72zM12.16 20.48v-8.96l7.808 4.48z"></path>
</svg>
